<?xml version="1.0" encoding="utf-8"?>
<!-- Generator: Adobe Illustrator 16.0.0, SVG Export Plug-In . SVG Version: 6.00 Build 0)  -->
<!DOCTYPE svg PUBLIC "-//W3C//DTD SVG 1.1//EN" "http://www.w3.org/Graphics/SVG/1.1/DTD/svg11.dtd">
<svg version="1.1" id="Layer_1" xmlns="http://www.w3.org/2000/svg" xmlns:xlink="http://www.w3.org/1999/xlink" x="0px" y="0px"
	 width="347.431px" height="290.961px" viewBox="0 0 347.431 290.961" enable-background="new 0 0 347.431 290.961"
	 xml:space="preserve">
<g>
	<line fill="none" stroke="#673695" stroke-width="5" stroke-miterlimit="10" x1="54.294" y1="82.627" x2="85.912" y2="114.245"/>
	<line fill="none" stroke="#673695" stroke-width="5" stroke-miterlimit="10" x1="85.912" y1="82.627" x2="54.294" y2="114.245"/>
</g>
<g>
	<line fill="none" stroke="#673695" stroke-width="5" stroke-miterlimit="10" x1="113.976" y1="82.627" x2="145.593" y2="114.245"/>
	<line fill="none" stroke="#673695" stroke-width="5" stroke-miterlimit="10" x1="145.593" y1="82.627" x2="113.976" y2="114.245"/>
</g>
<g>
	<line fill="none" stroke="#673695" stroke-width="5" stroke-miterlimit="10" x1="168.382" y1="82.627" x2="200" y2="114.245"/>
	<line fill="none" stroke="#673695" stroke-width="5" stroke-miterlimit="10" x1="200" y1="82.627" x2="168.382" y2="114.245"/>
</g>
<g>
	<line fill="none" stroke="#673695" stroke-width="5" stroke-miterlimit="10" x1="139.956" y1="36.426" x2="171.574" y2="68.044"/>
	<line fill="none" stroke="#673695" stroke-width="5" stroke-miterlimit="10" x1="171.574" y1="36.426" x2="139.956" y2="68.044"/>
</g>
<g>
	<line fill="none" stroke="#673695" stroke-width="5" stroke-miterlimit="10" x1="208.215" y1="36.426" x2="239.832" y2="68.044"/>
	<line fill="none" stroke="#673695" stroke-width="5" stroke-miterlimit="10" x1="239.832" y1="36.426" x2="208.215" y2="68.044"/>
</g>
<circle fill="none" stroke="#673695" stroke-width="5" stroke-miterlimit="10" cx="106.746" cy="158.364" r="20.833"/>
<circle fill="none" stroke="#673695" stroke-width="5" stroke-miterlimit="10" cx="168.382" cy="158.364" r="20.833"/>
<circle fill="none" stroke="#673695" stroke-width="5" stroke-miterlimit="10" cx="229.047" cy="158.364" r="20.833"/>
<circle fill="none" stroke="#673695" stroke-width="5" stroke-miterlimit="10" cx="218.999" cy="227.73" r="20.833"/>
<circle fill="none" stroke="#673695" stroke-width="5" stroke-miterlimit="10" cx="139.956" cy="253.461" r="20.833"/>
<g>
	<path fill="none" stroke="#673695" stroke-width="5" stroke-miterlimit="10" d="M28.24,178.42c0,0,0,0,8.408,28.477
		c11.87,40.204,70.098,46.564,70.098,46.564"/>
	<polyline fill="none" stroke="#673695" stroke-width="5" stroke-miterlimit="10" points="21.94,188.044 28.24,177.625 
		41.058,182.835 	"/>
</g>
<g>
	<path fill="none" stroke="#673695" stroke-width="5" stroke-miterlimit="10" d="M278.546,9.829c0,0,72.808,88.607,52.313,168.477
		c-14.627,57.005-72.423,54.321-72.423,54.321"/>
	<polyline fill="none" stroke="#673695" stroke-width="5" stroke-miterlimit="10" points="292.824,12.137 278.546,9.035 
		275.861,22.824 	"/>
</g>
</svg>
