<?xml version="1.0" encoding="utf-8"?>
<!-- Generator: Adobe Illustrator 16.0.0, SVG Export Plug-In . SVG Version: 6.00 Build 0)  -->
<!DOCTYPE svg PUBLIC "-//W3C//DTD SVG 1.1//EN" "http://www.w3.org/Graphics/SVG/1.1/DTD/svg11.dtd">
<svg version="1.1" id="Layer_1" xmlns="http://www.w3.org/2000/svg" xmlns:xlink="http://www.w3.org/1999/xlink" x="0px" y="0px"
	 width="746.778px" height="185.318px" viewBox="0 0 746.778 185.318" enable-background="new 0 0 746.778 185.318"
	 xml:space="preserve">
<g id="MpJ6Fl.tif">
	<g>
		<path fill="#F4CEC8" d="M61.089,96.373c1.357-2.207,0.729-4.287,0.885-6.228c0.132-1.633,0.346-3.206,2.388-3.327
			c2.745-0.164,2.838-1.936,2.868-4.019c0.139-9.717-0.316-19.435,0.313-29.153c0.199-3.066,1.764-6.078,0.157-9.331
			c-0.805-1.632,1.028-2.094,2.34-2.099c12.618-0.033,25.238-0.114,37.854,0.047c3.939,0.05,4.424,3.24,4.608,6.337
			c1.041,17.511,0.464,35.041,0.658,52.561c0.028,2.557-0.668,5.252,0.746,8.021c1.802-1.56,1.173-3.328,1.175-4.849
			c0.042-31.869,0.032-63.735,0.035-95.604c0.001-5.868,0.008-5.875,6-5.88c8.758-0.008,17.516-0.007,26.274,0
			c5.878,0.004,5.889,0.011,5.89,6.04c0.006,24.7-0.011,49.401,0.045,74.103c0.003,1.526-0.793,4.262,1.026,4.296
			c2.004,0.037,1.144-2.666,1.159-4.154c0.09-8.958,0.143-17.918-0.001-26.875c-0.052-3.278,1.033-4.729,4.456-4.452
			c2.559,0.207,5.148,0.031,7.724,0.04c1.91,0.006,3.611,0.021,5.281,1.59c1.925,1.809,3.892,0.727,4.2-1.935
			c0.073-0.632,0.042-1.277,0.039-1.918c-0.044-8.988-0.098-7.646,7.659-7.703c8.887-0.063,17.776,0.109,26.659-0.074
			c3.43-0.071,4.597,1.201,4.438,4.479c-0.178,3.703-0.005,7.421-0.024,11.132c-0.009,1.803,0.683,2.582,2.607,3.045
			c3.341,0.804,6.561,1.959,10.097,1.647c1.561-0.138,2.86,0.526,2.827,2.368c-0.05,2.767,1.722,2.938,3.848,2.995
			c7.337,0.198,7.568,0.573,7.696,8.074c0.064,3.71-0.681,7.426,1.822,11.021c1.171,1.684,0.371,4.722,0.463,7.146
			c0.053,1.38,0.327,2.572,2.081,2.648c1.95,0.084,2.395-1.141,2.4-2.719c0.018-4.991,0.022-9.982,0.024-14.974
			c0.003-16.894-0.06-33.788,0.06-50.682c0.021-2.929-1.1-6.147,1.466-8.765c0.69-0.704-0.333-1.291-0.696-1.924
			c-1.443-2.508-0.795-5.217-0.572-7.86c0.085-1.013,0.888-1.523,1.858-1.664c0.762-0.11,1.536-0.156,2.306-0.182
			c6.259-0.208,6.259-0.205,7.657-5.479c1.241,1.166-0.515,3.77,1.76,4.179c2.237,0.404,2.077-2.133,3.281-3.859
			c0.97,2.602,1.74,4.938,4.659,4.957c2.562,0.017,0.931-2.631,2.57-3.585c0.31,2.151,1.989,1.443,3.326,1.91
			c3.549,1.238,7.026,1.879,10.75,1.949c3.177,0.062,4.867,4.879,2.852,8.836c-0.847,1.663-1.159,2.545,0.02,4.205
			c0.764,1.075,0.484,2.958,0.486,4.479c0.025,21.374,0.106,42.747-0.061,64.119c-0.031,3.907,1.192,5.378,5.083,4.97
			c1.95-0.203,3.951-0.461,5.06,2.24c0.592,1.438,2.317,0.813,2.681-0.828c0.271-1.226,0.202-2.551,0.128-3.822
			c-0.142-2.423,0.184-4.327,3.286-4.445c2.13-0.081,2.209-1.776,2.214-3.377c0.01-3.711-0.024-7.423,0.024-11.134
			c0.054-4.142,0.465-4.416,4.131-2.688c3.956,1.864,7.912,3.734,11.785,5.761c2.44,1.275,3.532,0.951,3.435-1.994
			c-0.101-3.068,0.057-6.146-0.022-9.214c-0.065-2.517,0.825-3.752,3.571-3.726c9.272,0.091,18.547,0.103,27.819-0.009
			c2.943-0.035,3.763,1.263,3.738,3.949c-0.084,8.958-0.052,17.917,0.003,26.875c0.009,1.53-0.612,3.684,1.996,3.792
			c2.606,0.107,2.356-2.008,2.212-3.574c-0.341-3.725,1.272-5.29,4.91-4.737c5.689,0.861,9.81-3.108,9.108-9.264
			c-0.359-3.158,0.034-6.395-0.089-9.59c-0.097-2.503,0.593-3.677,3.442-3.699c6.664-0.051,6.51-0.2,6.717-6.959
			c0.385-12.608,1.914-25.079,5.291-37.278c0.104-0.369,0.1-0.919,0.342-1.075c5.879-3.73,2.943-9.601,3.629-14.584
			c0.18-1.312-0.457-2.786,1.666-4.897c0,4.646,0.043,8.344-0.016,12.041c-0.041,2.583-0.396,5.201,3.141,5.967
			c1.055,0.229,1.602,1.229,1.783,2.317c1.318,7.897,4.283,15.408,4.467,23.635c0.125,5.691,0.783,11.426,0.863,17.163
			c0.047,3.267,2.062,4.093,4.922,3.759c3.164-0.367,5.703-0.114,5.189,4.173c-0.201,1.68,1.197,2.197,2.604,2.034
			c3.947-0.46,4.334,1.807,4.314,4.92c-0.096,13.693-0.062,27.388-0.01,41.083c0.006,1.427-0.615,3.07,0.998,4.459
			c1.736-2.102,1.438-4.575,1.518-6.864c0.656-18.664,1.232-37.333,1.834-56c0.078-2.488-0.039-4.952,3.664-5.001
			c4.076-0.055,4.826,0.519,5.004,4.812c0.811,19.551,1.621,39.104,2.439,58.653c0.031,0.766,0.053,1.543,0.201,2.291
			c0.17,0.856,0.316,2.026,1.467,1.912c1.164-0.113,1.041-1.308,1.049-2.168c0.018-2.552-0.328-5.115,3.004-6.244
			c1.131-0.383,0.76-2.051,0.768-3.174c0.033-4.865,0.15-9.732-0.02-14.591c-0.113-3.157,1.092-4.594,4.26-4.155
			c3.717,0.514,4.693-1.276,4.527-4.657c-0.428-8.674,0.604-17.384-0.58-26.049c-0.062-0.456-0.01-1.242,0.256-1.382
			c5.891-3.129,2.348-8.324,2.629-12.576c0.098-1.488-0.686-2.529,1.486-2.871c6.49-1.024,6.814-1.132,5.928-7.238
			c-0.67-4.613,1.668-8.312,3.061-12.118c1.955-5.352,5.398-10.155,8.057-15.271c1.094-2.104,2.6-2.832,4.918-2.899
			c11.207-0.327,11.312-0.431,16.406,9.438c2.371,4.594,4.723,9.157,6.477,14.15c1.248,3.551,0.736,6.506,0.865,9.673
			c0.121,2.979,0.727,4.721,4.104,4.258c3.494-0.479,4.516,0.821,3.701,4.316c-0.537,2.313-0.148,4.84-0.152,7.271
			c-0.002,0.508-0.09,1.318,0.178,1.479c4.625,2.796,1.768,7.1,2.104,10.677c0.451,4.818,4.203,8.285,8.986,7.655
			c0.506-0.065,1.287-0.019,1.461-0.308c3.035-5.027,8.127-3.359,12.576-4.342c4.551-1.004,8.443,0.053,12.635,0.763
			c2.816,0.477,3.889,1.726,3.859,4.585c-0.115,11.006,0.203,22.022-0.182,33.014c-0.123,3.523,2.281,6.093,2.428,9.392
			c0-4.947,0.021-9.896-0.01-14.842c-0.018-2.388,0.363-4.595,2.297-6.261c1.549-1.338,1.539-3.151,1.48-4.959
			c-0.121-3.697,1.371-6.25,5.232-6.815c2.107-0.311,2.359-1.568,2.354-3.249c-0.016-4.991,0.004-9.982,0.016-14.975
			c0.006-1.756,0.104-3.396,2.568-3.378c2.498,0.021,2.479,1.732,2.486,3.447c0.02,4.991,0.008,9.982,0.031,14.974
			c0.008,1.433-0.041,2.991,2.051,2.985c2.09-0.006,2.035-1.571,2.041-2.999c0.023-4.99,0.012-9.982,0.025-14.974
			c0.006-1.73,0.035-3.43,2.516-3.427c2.463,0.004,2.537,1.692,2.545,3.427c0.021,4.734-0.033,9.472,0.057,14.205
			c0.025,1.392-0.641,3.582,1.662,3.622c2.561,0.045,1.912-2.288,1.941-3.801c0.096-4.605,0.023-9.215,0.061-13.821
			c0.016-1.854,0.092-3.69,2.758-3.676c2.668,0.017,2.711,1.851,2.721,3.706c0.023,4.735-0.031,9.473,0.041,14.206
			c0.021,1.419-0.451,3.493,1.934,3.412c2.055-0.07,1.666-1.96,1.682-3.281c0.059-4.734,0.006-9.471,0.041-14.206
			c0.016-1.798-0.113-3.729,2.584-3.831c2.984-0.112,2.85,2.001,2.871,3.923c0.055,4.351,0.08,8.703,0.002,13.053
			c-0.049,2.703,0.172,4.652,3.82,4.688c3.838,0.036,4.191-2.01,4.023-4.881c-0.068-1.146-0.047-2.304-0.004-3.454
			c0.184-4.938,2.768-6.688,7.4-5.033c4.27,1.523,4.865,1.139,4.877-3.46c0.031-11.519,0.213-23.042-0.09-34.553
			c-0.111-4.208,1.471-7.191,4.461-9.61c1.934-1.564,2.404-3.353,2.354-5.669c-0.117-5.312-0.037-10.629-0.037-16.016
			c1.482,0.196,1.416,0.915,1.418,1.496c0.053,11.379,0.66,22.803-0.201,34.115c-0.285,3.761-1.541,7.684-1.535,11.659
			c0.002,1.665-0.191,3.426,2.131,3.895c0.422,0.086,1.117,0.667,1.078,0.93c-0.705,4.712,3.355,6.295,5.854,8.868
			c3.604,3.719,5.287,8.006,4.684,13.229c-0.26,2.231-0.428,4.585,2.314,5.936c1.26,0.62,0.891,2.294,0.895,3.546
			c0.031,6.399-0.061,12.8,0.045,19.198c0.09,5.246,2.506,10.191,2.182,15.603c-0.145-5.49,4.039-10.066,2.891-15.699
			c-0.629-3.09,0.934-4.625,4.123-4.178c4.023,0.563,4.633-1.556,4.619-4.959c-0.102-24.572-0.059-49.146-0.053-73.719
			c0.002-5.73,0.02-5.737,5.791-5.741c8.889-0.007,17.777,0.146,26.658-0.07c3.789-0.093,4.844,1.316,4.818,4.915
			c-0.131,18.685-0.064,37.371-0.039,56.057c0.002,1.376-0.324,2.812,0.68,4.684c1.271-3.563,0.627-6.806,0.686-9.942
			c0.129-6.904,1.227-8.093,8.023-8.088c2.189,0.001,4.381-0.031,6.568,0.011c2.512,0.048,4.789,0.077,7.246,1.631
			c2.648,1.676,6.279,0.522,9.479,0.575c6.008,0.103,6.02,0.036,6.021,5.838c0.006,12.67-0.025,25.34,0.023,38.01
			c0.01,2.552,0.432,5.099,0.439,7.648c0.01,2.531,0.627,4.145,3.627,4.191c2.832,0.045,2.584,2.375,2.59,4.262
			c0.035,10.11,0.02,20.223,0.021,30.332c0.002,8.062-0.098,16.127,0.053,24.188c0.059,3.172-0.727,4.445-4.299,4.443
			c-245.605-0.088-491.211-0.082-736.817-0.088c-5.613,0-5.63-0.017-5.633-5.443C0.018,162.252,0.055,144.719,0,127.186
			c-0.014-4.347,2.453-8.302,1.86-12.73c-0.062-0.463,0.552-1.408,0.97-1.483c3.917-0.707,3.254-3.716,3.269-6.312
			c0.039-7.039,0.107-14.08-0.068-21.116c-0.068-2.7,0.872-3.682,3.527-3.626c5.021,0.106,10.045,0.055,15.068,0.025
			c2.043-0.012,3.549,0.456,3.632,2.9c0.023,0.707,0.623,2.032,0.719,2.012c4.985-1.112,4.378,6.315,8.974,5.761
			c1.881-0.229,3.694-0.119,3.675,2.568c-0.005,0.66,0.544,1.186,1.338,0.983c0.73-0.184,0.964-0.815,0.98-1.477
			c0.048-1.92,0.061-3.839,0.063-5.758c0.008-9.6,0.11-19.199-0.045-28.795c-0.052-3.231,1.198-4.373,4.304-4.196
			c2.567,0.146,5.155,0.116,7.724-0.01c3.009-0.147,4.047,1.143,4.013,4.104c-0.121,10.622-0.066,21.245-0.02,31.867
			C59.989,93.234,59.499,94.713,61.089,96.373z"/>
	</g>
</g>
</svg>
