<?xml version="1.0" encoding="utf-8"?>
<!-- Generator: Adobe Illustrator 16.0.0, SVG Export Plug-In . SVG Version: 6.00 Build 0)  -->
<!DOCTYPE svg PUBLIC "-//W3C//DTD SVG 1.1//EN" "http://www.w3.org/Graphics/SVG/1.1/DTD/svg11.dtd">
<svg version="1.1" id="Layer_1" xmlns="http://www.w3.org/2000/svg" xmlns:xlink="http://www.w3.org/1999/xlink" x="0px" y="0px"
	 width="255.059px" height="48.345px" viewBox="0 0 255.059 48.345" enable-background="new 0 0 255.059 48.345"
	 xml:space="preserve">
<g>
	<path fill="#FFFFFF" d="M14.547,14.284c-1.663,1.411-2.494,3.528-2.494,6.351v2.494h16.704v7.54H12.053v14.79H2.656V20.692
		c0-5.22,1.633-9.279,4.901-12.18c3.267-2.9,7.839-4.35,13.717-4.35c2.32,0,4.504,0.241,6.554,0.725
		c2.05,0.484,3.828,1.189,5.336,2.117l-2.899,7.424c-2.32-1.508-5.104-2.262-8.353-2.262S16.208,12.873,14.547,14.284z"/>
	<path fill="#FFFFFF" d="M68.428,32.409H44.821c0.425,1.934,1.43,3.461,3.016,4.582s3.558,1.682,5.916,1.682
		c1.624,0,3.064-0.241,4.321-0.726c1.256-0.482,2.426-1.246,3.509-2.29l4.814,5.22c-2.939,3.364-7.231,5.046-12.876,5.046
		c-3.52,0-6.632-0.687-9.338-2.06c-2.707-1.372-4.795-3.276-6.265-5.713c-1.47-2.436-2.203-5.2-2.203-8.294
		c0-3.054,0.725-5.809,2.175-8.265c1.45-2.455,3.44-4.369,5.974-5.742c2.532-1.372,5.365-2.059,8.497-2.059
		c3.054,0,5.819,0.657,8.294,1.972c2.475,1.315,4.417,3.2,5.829,5.655c1.411,2.456,2.117,5.307,2.117,8.555
		C68.602,30.089,68.543,30.9,68.428,32.409z M47.258,22.375c-1.393,1.16-2.243,2.746-2.553,4.756h15.37
		c-0.31-1.972-1.16-3.547-2.552-4.728c-1.392-1.179-3.094-1.769-5.104-1.769C50.369,20.635,48.649,21.215,47.258,22.375z"/>
	<path fill="#FFFFFF" d="M106.301,14.255v31.204h-8.642v-3.597c-2.243,2.707-5.491,4.061-9.744,4.061
		c-2.939,0-5.597-0.657-7.975-1.972s-4.244-3.19-5.598-5.626c-1.354-2.437-2.029-5.259-2.029-8.469c0-3.209,0.676-6.031,2.029-8.468
		c1.354-2.436,3.22-4.311,5.598-5.626c2.378-1.314,5.035-1.972,7.975-1.972c3.982,0,7.095,1.257,9.338,3.77v-3.306H106.301z
		 M95.165,36.149c1.508-1.565,2.262-3.663,2.262-6.293c0-2.629-0.754-4.727-2.262-6.293c-1.508-1.565-3.403-2.349-5.684-2.349
		c-2.32,0-4.234,0.783-5.742,2.349c-1.508,1.566-2.263,3.664-2.263,6.293c0,2.63,0.755,4.728,2.263,6.293
		c1.508,1.566,3.422,2.35,5.742,2.35C91.762,38.499,93.657,37.716,95.165,36.149z"/>
	<path fill="#FFFFFF" d="M127.674,14.951c1.836-0.773,3.953-1.16,6.351-1.16v8.352c-1.006-0.077-1.682-0.116-2.03-0.116
		c-2.591,0-4.62,0.726-6.09,2.176c-1.47,1.449-2.204,3.625-2.204,6.524v14.732h-9.048V14.255h8.643v4.118
		C124.377,16.864,125.837,15.725,127.674,14.951z"/>
	<path fill="#FFFFFF" d="M142.377,43.109c-1.972-1.875-2.958-4.532-2.958-7.975V2.423h9.048v32.189c0,1.315,0.339,2.33,1.016,3.046
		c0.676,0.716,1.633,1.072,2.871,1.072c0.464,0,0.937-0.058,1.421-0.174c0.482-0.116,0.859-0.251,1.131-0.406l0.406,7.019
		c-1.509,0.502-3.074,0.754-4.698,0.754C147.094,45.923,144.35,44.985,142.377,43.109z"/>
	<path fill="#FFFFFF" d="M190.169,32.409h-23.606c0.425,1.934,1.43,3.461,3.016,4.582s3.558,1.682,5.916,1.682
		c1.624,0,3.064-0.241,4.321-0.726c1.256-0.482,2.426-1.246,3.509-2.29l4.814,5.22c-2.939,3.364-7.231,5.046-12.876,5.046
		c-3.52,0-6.632-0.687-9.338-2.06c-2.707-1.372-4.795-3.276-6.265-5.713c-1.47-2.436-2.203-5.2-2.203-8.294
		c0-3.054,0.725-5.809,2.175-8.265c1.45-2.455,3.44-4.369,5.974-5.742c2.532-1.372,5.365-2.059,8.497-2.059
		c3.054,0,5.819,0.657,8.294,1.972c2.475,1.315,4.417,3.2,5.829,5.655c1.411,2.456,2.117,5.307,2.117,8.555
		C190.343,30.089,190.284,30.9,190.169,32.409z M168.999,22.375c-1.393,1.16-2.243,2.746-2.553,4.756h15.37
		c-0.31-1.972-1.16-3.547-2.552-4.728c-1.392-1.179-3.094-1.769-5.104-1.769C172.11,20.635,170.391,21.215,168.999,22.375z"/>
	<path fill="#FFFFFF" d="M199.274,44.966c-2.476-0.638-4.447-1.44-5.916-2.407l3.016-6.496c1.393,0.891,3.074,1.615,5.046,2.175
		c1.973,0.562,3.905,0.842,5.801,0.842c3.827,0,5.741-0.947,5.741-2.843c0-0.889-0.521-1.526-1.565-1.914
		c-1.044-0.386-2.649-0.715-4.814-0.985c-2.552-0.387-4.66-0.831-6.322-1.334c-1.662-0.502-3.103-1.393-4.32-2.668
		c-1.218-1.276-1.827-3.093-1.827-5.452c0-1.972,0.57-3.721,1.711-5.249c1.14-1.527,2.803-2.716,4.988-3.567
		c2.184-0.85,4.765-1.275,7.743-1.275c2.203,0,4.397,0.241,6.583,0.725c2.184,0.484,3.991,1.151,5.423,2.001l-3.017,6.438
		c-2.746-1.547-5.742-2.32-8.989-2.32c-1.935,0-3.385,0.271-4.351,0.812c-0.967,0.542-1.45,1.238-1.45,2.089
		c0,0.967,0.522,1.644,1.566,2.029c1.044,0.388,2.706,0.754,4.988,1.103c2.552,0.426,4.64,0.88,6.264,1.362
		c1.624,0.484,3.035,1.363,4.234,2.64c1.197,1.275,1.798,3.055,1.798,5.336c0,1.934-0.58,3.654-1.74,5.162s-2.852,2.678-5.075,3.509
		s-4.862,1.247-7.917,1.247C204.281,45.923,201.748,45.604,199.274,44.966z"/>
	<path fill="#FFFFFF" d="M230.072,44.966c-2.476-0.638-4.447-1.44-5.916-2.407l3.016-6.496c1.393,0.891,3.074,1.615,5.046,2.175
		c1.973,0.562,3.905,0.842,5.801,0.842c3.827,0,5.741-0.947,5.741-2.843c0-0.889-0.521-1.526-1.565-1.914
		c-1.044-0.386-2.649-0.715-4.814-0.985c-2.552-0.387-4.66-0.831-6.322-1.334c-1.662-0.502-3.103-1.393-4.32-2.668
		c-1.218-1.276-1.827-3.093-1.827-5.452c0-1.972,0.57-3.721,1.711-5.249c1.14-1.527,2.803-2.716,4.988-3.567
		c2.184-0.85,4.765-1.275,7.743-1.275c2.203,0,4.397,0.241,6.583,0.725c2.184,0.484,3.991,1.151,5.423,2.001l-3.017,6.438
		c-2.746-1.547-5.742-2.32-8.989-2.32c-1.935,0-3.385,0.271-4.351,0.812c-0.967,0.542-1.45,1.238-1.45,2.089
		c0,0.967,0.522,1.644,1.566,2.029c1.044,0.388,2.706,0.754,4.988,1.103c2.552,0.426,4.64,0.88,6.264,1.362
		c1.624,0.484,3.035,1.363,4.234,2.64c1.197,1.275,1.798,3.055,1.798,5.336c0,1.934-0.58,3.654-1.74,5.162s-2.852,2.678-5.075,3.509
		s-4.862,1.247-7.917,1.247C235.079,45.923,232.546,45.604,230.072,44.966z"/>
</g>
</svg>
