<?xml version="1.0" encoding="utf-8"?>
<!-- Generator: Adobe Illustrator 16.0.0, SVG Export Plug-In . SVG Version: 6.00 Build 0)  -->
<!DOCTYPE svg PUBLIC "-//W3C//DTD SVG 1.1//EN" "http://www.w3.org/Graphics/SVG/1.1/DTD/svg11.dtd">
<svg version="1.1" id="Layer_1" xmlns="http://www.w3.org/2000/svg" xmlns:xlink="http://www.w3.org/1999/xlink" x="0px" y="0px"
	 width="142.329px" height="142.329px" viewBox="0 0 142.329 142.329" enable-background="new 0 0 142.329 142.329"
	 xml:space="preserve">
<rect x="-2.667" y="-2.667" fill-rule="evenodd" clip-rule="evenodd" fill="#5C3978" width="147.664" height="147.663"/>
<g>
	<g>
		<path fill-rule="evenodd" clip-rule="evenodd" fill="#FFFFFF" d="M61.28,60.369c-1.217-0.704-2.334-1.563-3.319-2.547
			c-0.987-0.99-1.851-2.104-2.553-3.32l-4.629,2.67c0.935,1.623,2.086,3.11,3.398,4.425c1.322,1.316,2.803,2.462,4.427,3.4
			c3.149,1.822,6.797,2.863,10.692,2.863v-5.346C66.375,62.514,63.636,61.735,61.28,60.369L61.28,60.369z"/>
		<path fill-rule="evenodd" clip-rule="evenodd" fill="#C9BCD0" d="M78.381,81.413v1.07c0,2.95-2.393,5.344-5.348,5.344v-5.344
			v-1.07v-4.54V74.2v-2.672c4.565,0,8.843-1.221,12.526-3.352l2.674,4.629c-3,1.735-6.32,2.974-9.853,3.599V81.413L78.381,81.413z"
			/>
		<path fill-rule="evenodd" clip-rule="evenodd" fill="#C9BCD0" d="M69.296,81.413v1.07v5.344c-2.953,0-5.347-2.394-5.347-5.344
			v-1.07v-5.009c-3.531-0.625-6.853-1.863-9.853-3.599l2.67-4.629c3.688,2.131,7.964,3.352,12.53,3.352V74.2v2.673V81.413
			L69.296,81.413z"/>
		<path fill-rule="evenodd" clip-rule="evenodd" fill="#FFFFFF" d="M81.054,60.369c1.213-0.704,2.334-1.563,3.319-2.547
			c0.983-0.99,1.846-2.104,2.548-3.32l4.629,2.67c-0.936,1.623-2.083,3.11-3.401,4.425c-1.314,1.316-2.8,2.462-4.422,3.4
			c-3.146,1.822-6.8,2.863-10.694,2.863v-5.346C75.954,62.514,78.693,61.735,81.054,60.369z"/>
	</g>
</g>
</svg>
